<?xml version="1.0" encoding="UTF-8"?>
<svg width="60px" height="50px" viewBox="0 0 60 50" version="1.1" xmlns="http://www.w3.org/2000/svg" xmlns:xlink="http://www.w3.org/1999/xlink">
    <title>Artboard Copy 8</title>
    <g id="Artboard-Copy-8" stroke="none" stroke-width="1" fill="none" fill-rule="evenodd">
        <path d="M18.7619342,5.71418041 C34.119317,-3.07083411 51.600389,-1.55793995 57.8070014,9.0933241 C64.0136138,19.7445881 56.5954486,35.5008051 41.2380658,44.2858196 C25.880683,53.0708341 8.39961096,51.5579399 2.19299859,40.9066759 C-4.01361379,30.2554119 3.40455135,14.4991949 18.7619342,5.71418041 Z M23.0680415,13.0212301 C19.497498,15.0779224 16.333928,17.4185164 13.6917159,19.8701691 L12.9510835,20.573514 C6.29380931,27.0458064 3.28746789,34.1669811 5.98699128,38.8318921 C9.81540626,45.447584 23.66994,44.617913 36.9319585,36.9787699 C40.502502,34.9220776 43.666072,32.5814836 46.3082841,30.1298309 L47.0489165,29.426486 C53.7061907,22.9541936 56.7125321,15.8330189 54.0130087,11.1681079 C50.1845937,4.55241596 36.33006,5.38208701 23.0680415,13.0212301 Z" id="Shape" fill="#000000"></path>
        <rect id="top-stem" fill="#000000" x="0" y="32.5" width="5" height="17.5"></rect>
    </g>
</svg>